<svg width="512" height="279" viewBox="0 0 512 279" fill="none" xmlns="http://www.w3.org/2000/svg">
<path d="M115.203 0C135.652 18.2701 147.626 38.039 149.195 66.0068C150.049 81.2245 146.782 97.4748 150.764 112.283C158.251 140.124 188.038 151.777 202.013 176.611C212.056 194.458 215.495 207.479 218.552 227.351C226.396 211.492 234.707 195.797 242.751 180.032C246.495 172.696 248.899 165.167 251.603 157.396L259.308 135.735L283.217 68.2842C287.351 56.6356 291.601 43.9984 295.997 32.5049L321.969 89.0059L332.078 111.063C333.413 113.976 335.446 117.978 336.605 120.832L377.215 33.7217L387.806 10.9609C389.233 7.91679 391.75 2.9952 392.938 0H512V279H297.478C292.319 268.437 286.521 257.519 281.162 247.004L256.061 197.717L226.478 255.672C222.574 263.479 218.608 271.255 214.58 279H0V0H115.203ZM32.8867 19.1367C36.8354 27.3512 41.2084 35.7166 45.3369 43.8613L67.6875 87.9268L122.84 197.427C133.216 218.093 144.003 239.098 154.095 259.859L183.979 259.821C188.428 259.82 194.829 260.071 199.112 259.772C199.329 259.469 199.44 259.409 199.438 259.055C200.726 229.155 196.346 196.646 175.047 174.1C168.835 167.484 161.675 161.129 154.94 155.076C136.538 138.536 126.903 115.513 128.63 90.6367C130.458 64.2886 129.588 43.9281 110.389 23.0771C109.135 21.7173 107.832 20.4038 106.482 19.1396L32.8867 19.1367ZM406.122 19.0537C401.952 28.2127 397.715 37.3417 393.412 46.4395L363.911 109.951L346.304 147.891C343.312 154.369 339.788 162.603 336.581 168.798L312.865 117.206C308.252 107.206 303.191 95.566 298.25 85.8525L277.16 145.504L270.112 165.37C269.249 167.823 267.369 172.723 266.768 175.099L292.378 225.022C298.076 236.365 304.791 248.548 310.155 259.859L358.062 259.829L436.881 102.69L466.581 44.084C470.713 35.9131 475.279 27.3337 479.234 19.1348L432.24 19.1279C423.779 19.1279 414.535 19.3133 406.122 19.0537Z" fill="#E3F4FF"/>
</svg>
