<svg width="512" height="512" viewBox="0 0 512 512" fill="none" xmlns="http://www.w3.org/2000/svg">
<path d="M115.203 116C135.652 134.27 147.626 154.039 149.195 182.007C150.049 197.225 146.782 213.475 150.764 228.283C158.251 256.124 188.038 267.777 202.013 292.611C212.056 310.458 215.495 323.479 218.552 343.351C226.396 327.492 234.707 311.797 242.751 296.032C246.495 288.696 248.899 281.167 251.603 273.396L259.308 251.735L283.217 184.284C287.351 172.636 291.6 159.998 295.996 148.505L321.969 205.006L332.078 227.063C333.413 229.976 335.446 233.978 336.605 236.832L377.215 149.722L387.806 126.961C389.233 123.917 391.75 118.995 392.938 116H512V395H297.478C292.319 384.437 286.521 373.519 281.162 363.004L256.06 313.717L226.478 371.672C222.574 379.479 218.608 387.255 214.58 395H0V116H115.203ZM32.8867 135.137C36.8354 143.351 41.2084 151.717 45.3369 159.861L67.6875 203.927L122.84 313.427C133.216 334.093 144.003 355.098 154.095 375.859L183.978 375.821C188.428 375.82 194.829 376.07 199.112 375.771C199.329 375.468 199.44 375.408 199.438 375.055C200.726 345.155 196.346 312.646 175.047 290.1C168.835 283.484 161.675 277.129 154.94 271.076C136.538 254.536 126.903 231.513 128.63 206.637C130.458 180.289 129.588 159.928 110.389 139.077C109.135 137.717 107.832 136.404 106.482 135.14L32.8867 135.137ZM406.122 135.054C401.952 144.213 397.715 153.342 393.412 162.439L363.911 225.951L346.304 263.891C343.312 270.369 339.788 278.603 336.581 284.798L312.865 233.206C308.252 223.206 303.191 211.566 298.25 201.853L277.16 261.504L270.112 281.37C269.249 283.823 267.368 288.723 266.767 291.099L292.378 341.022C298.076 352.365 304.791 364.548 310.155 375.859L358.061 375.829L436.881 218.69L466.581 160.084C470.713 151.913 475.279 143.333 479.234 135.134L432.24 135.128C423.779 135.128 414.535 135.313 406.122 135.054Z" fill="#E3F4FF"/>
</svg>
